<?xml version="1.0" encoding="UTF-8" standalone="no"?>
<svg
   width="250"
   height="250"
   viewBox="0 0 250 250"
   version="1.1"
   id="svg3"
   sodipodi:docname="OpenCircleFleetRoundel-Legends.svg"
   inkscape:version="1.4.2 (f4327f4, 2025-05-13)"
   xmlns:inkscape="http://www.inkscape.org/namespaces/inkscape"
   xmlns:sodipodi="http://sodipodi.sourceforge.net/DTD/sodipodi-0.dtd"
   xmlns="http://www.w3.org/2000/svg"
   xmlns:svg="http://www.w3.org/2000/svg">
  <defs
     id="defs3" />
  <sodipodi:namedview
     id="namedview3"
     pagecolor="#ffffff"
     bordercolor="#000000"
     borderopacity="0.25"
     inkscape:showpageshadow="2"
     inkscape:pageopacity="0.0"
     inkscape:pagecheckerboard="0"
     inkscape:deskcolor="#d1d1d1"
     showguides="false"
     inkscape:zoom="2"
     inkscape:cx="80.5"
     inkscape:cy="135.75"
     inkscape:window-width="1920"
     inkscape:window-height="1009"
     inkscape:window-x="-8"
     inkscape:window-y="-8"
     inkscape:window-maximized="1"
     inkscape:current-layer="svg3" />
  <path
     id="circle1"
     d="m 125,36 a 89,89 0 0 1 86.10937,66.5 h 36.84961 A 125,125 0 0 1 250,125 125,125 0 0 1 247.95898,147.5 H 211.10937 A 89,89 0 0 1 125,214 89,89 0 0 1 38.89062,147.5 H 2.04102 A 125,125 0 0 1 0,125 125,125 0 0 1 2.04102,102.5 h 36.8496 A 89,89 0 0 1 125,36 Z"
     style="fill:#f2e965;fill-opacity:1" />
  <mask
     id="open">
    <rect
       width="250"
       height="250"
       fill="#FFF"
       id="rect1" />
    <rect
       y="102.5"
       width="250"
       height="45"
       id="rect2" />
    <circle
       cx="125"
       cy="125"
       r="89"
       id="circle2" />
  </mask>
  <path
     id="circle4"
     style="fill:#732221;fill-opacity:1"
     d="M 125,0 A 125,125 0 0 1 247.95898,102.5 H 211.10937 A 89,89 0 0 0 125,36 89,89 0 0 0 38.89062,102.5 H 2.04102 A 125,125 0 0 1 125,0 Z M 247.95898,147.5 A 125,125 0 0 1 125,250 125,125 0 0 1 2.04102,147.5 h 36.8496 A 89,89 0 0 0 125,214 89,89 0 0 0 211.10937,147.5 Z" />
</svg>
